<?xml version="1.0" standalone="no"?>
<!DOCTYPE svg PUBLIC "-//W3C//DTD SVG 20010904//EN"
 "http://www.w3.org/TR/2001/REC-SVG-20010904/DTD/svg10.dtd">
<svg version="1.0" xmlns="http://www.w3.org/2000/svg"
 width="260.000000pt" height="260.000000pt" viewBox="0 0 260.000000 260.000000"
 preserveAspectRatio="xMidYMid meet">
<metadata>
Created by potrace 1.11, written by Peter Selinger 2001-2013
</metadata>
<g transform="translate(0.000000,260.000000) scale(0.100000,-0.100000)"
fill="#000000" stroke="none">
<path d="M1170 2142 c-50 -7 -171 -43 -218 -64 -305 -140 -502 -445 -502 -778
0 -477 388 -858 865 -849 225 4 430 91 586 248 106 107 178 230 219 372 26 86
35 290 19 379 -33 174 -113 325 -238 451 -129 128 -280 207 -459 239 -57 10
-209 11 -272 2z"/>
</g>
</svg>
